<svg width="22" height="21" viewBox="0 0 22 21" fill="none" xmlns="http://www.w3.org/2000/svg">
<path d="M19.8795 10.7939C20.4281 11.2122 21.2104 11.1371 21.6706 10.6053C22.1535 10.0472 22.0991 9.19771 21.5491 8.7078L12.399 0.557903C11.5987 -0.154963 10.4013 -0.154961 9.60098 0.557903L0.450933 8.7078C-0.0991026 9.19771 -0.153519 10.0472 0.329388 10.6053C0.789646 11.1371 1.5719 11.2122 2.12047 10.7939V19.6555C2.12047 20.398 2.71383 21 3.44579 21H7.119C7.85093 21 8.44429 20.398 8.44429 19.6555V14.751C8.44429 14.0084 9.03765 13.4065 9.76959 13.4065H12.2304C12.9623 13.4065 13.5557 14.0084 13.5557 14.751V19.6555C13.5557 20.398 14.149 21 14.881 21H18.5542C19.2861 21 19.8795 20.398 19.8795 19.6555V10.7939Z" fill="#94A3B8"/>
</svg>
