<svg width="24" height="16" viewBox="0 0 24 16" fill="none" xmlns="http://www.w3.org/2000/svg">
<path d="M4.58343 11.6313H22.8126C23.5418 11.6313 23.5418 11.6313 23.5418 10.9021V1.43752C23.5418 0.708354 23.5418 0.708354 22.8126 0.708354H4.58343C3.85426 0.708354 3.85426 0.708354 3.85426 1.43752V10.9021C3.85426 11.6313 3.85426 11.6313 4.58343 11.6313ZM13.698 9.09377C12.0938 9.09377 10.7813 7.78127 10.7813 6.1771C10.7813 4.57294 12.0938 3.26044 13.698 3.26044C15.3022 3.26044 16.6147 4.57294 16.6147 6.1771C16.6147 7.78127 15.3022 9.09377 13.698 9.09377ZM0.937598 15.2917H19.1668C19.8959 15.2917 19.8959 15.2917 19.8959 14.5625V13.0896H3.1251C2.39593 13.0896 2.39593 13.0896 2.39593 12.3604V5.08335H0.937598C0.208431 5.08335 0.208431 5.08335 0.208431 5.81252V14.5625C0.208431 15.2917 0.208431 15.2917 0.937598 15.2917Z" fill="#0F172A"/>
</svg>
