<svg width="46" height="46" viewBox="0 0 46 46" fill="none" xmlns="http://www.w3.org/2000/svg">
<rect y="0.327888" width="46" height="45.3954" rx="22.6977" fill="#F1F5F9"/>
<path d="M32.6842 29.6318H30.6232V21.3458C30.6232 21.1775 30.497 21.0514 30.3288 21.0514H27.8262C27.6579 21.0514 27.5317 21.1775 27.5317 21.3458V29.6318H24.5244V21.3458C24.5244 21.1775 24.3982 21.0514 24.23 21.0514H21.7274C21.5592 21.0514 21.433 21.1775 21.433 21.3458V29.6318H18.4467V21.3458C18.4467 21.1775 18.3205 21.0514 18.1523 21.0514H15.6497C15.4814 21.0514 15.3553 21.1775 15.3553 21.3458V29.6318H13.2943C13.1261 29.6318 12.9999 29.758 12.9999 29.9262V32.4289C12.9999 32.5971 13.1261 32.7233 13.2943 32.7233H32.6842C32.8524 32.7233 32.9786 32.5971 32.9786 32.4289V29.9262C32.9786 29.758 32.8524 29.6318 32.6842 29.6318Z" fill="black"/>
<path d="M32.7896 16.7401L23.2419 13.3752C23.0947 13.3121 22.9265 13.3121 22.7582 13.3752L13.2105 16.7401C13.0843 16.7822 13.0212 16.8873 13.0212 17.0135V19.6003C13.0212 19.7685 13.1474 19.8947 13.3157 19.8947H32.7055C32.8738 19.8947 32.9999 19.7685 32.9999 19.6003V17.0135C32.9789 16.8873 32.8948 16.7822 32.7896 16.7401Z" fill="black"/>
</svg>
