<svg width="11" height="14" viewBox="0 0 11 14" fill="none" xmlns="http://www.w3.org/2000/svg">
<path d="M1.78693 13.5128H9.71307C10.2813 13.5128 10.75 13.0582 10.75 12.4759V6.79403C10.75 6.22585 10.2955 5.7571 9.71307 5.7571H9.68466V4.39346C9.68466 2.23437 7.9375 0.487213 5.77841 0.487213C3.61932 0.487213 1.87216 2.23437 1.87216 4.39346V5.7571H1.78693C1.21875 5.7571 0.75 6.21165 0.75 6.79403V12.4759C0.75 13.044 1.21875 13.5128 1.78693 13.5128ZM6.3608 9.89062C6.27557 9.94744 6.26136 10.0043 6.26136 10.1037C6.26136 10.5156 6.26136 10.9418 6.26136 11.3537C6.27557 11.5241 6.17614 11.6946 6.03409 11.7798C5.66477 11.9645 5.30966 11.7088 5.30966 11.3537C5.30966 10.9418 5.30966 10.5156 5.30966 10.1037C5.30966 10.0185 5.29545 9.96165 5.21023 9.90483C4.8267 9.62074 4.71307 9.15199 4.89773 8.74006C5.08239 8.32812 5.52273 8.10085 5.94886 8.18608C6.41761 8.28551 6.74432 8.65483 6.74432 9.12358C6.75852 9.43608 6.61648 9.70597 6.3608 9.89062ZM3.59091 4.40767C3.59091 3.20028 4.57102 2.20596 5.79261 2.20596C7.0142 2.20596 7.99432 3.18608 7.99432 4.40767V5.7713H3.59091V4.40767Z" fill="black"/>
</svg>
