<svg width="13" height="14" viewBox="0 0 13 14" fill="none" xmlns="http://www.w3.org/2000/svg">
<path fill-rule="evenodd" clip-rule="evenodd" d="M3.6991 7.24449C3.7615 7.22362 3.81878 7.18978 3.86716 7.14518L4.95192 6.12921C5.09894 5.99917 5.27415 5.90503 5.46374 5.85421L6.88462 5.42262C6.9492 5.40414 7.00824 5.37003 7.0565 5.32331L8.16036 4.2806C8.292 4.15669 8.44813 4.06171 8.61871 4.00179L9.76458 3.61984C9.10527 2.53909 8.06959 1.74032 6.85677 1.37719C5.64396 1.01406 4.3397 1.11224 3.19491 1.65283L2.75948 0.888947L2.01848 1.31672L2.46156 2.08061C1.77793 2.55346 1.21946 3.18534 0.834216 3.92188C0.448969 4.65841 0.248485 5.47753 0.250023 6.30872C0.247484 7.15848 0.45897 7.9952 0.864974 8.7417L1.78931 7.93962C1.92426 7.8207 2.08317 7.73213 2.2553 7.6799L3.6991 7.24449ZM5.70857 6.65622C5.64586 6.67641 5.58845 6.71034 5.54051 6.75552L5.29224 6.98851L7.34717 10.5406H8.33262L6.04087 6.56073L5.70857 6.65622ZM10.5387 11.3961C10.9932 11.3971 11.4287 11.5785 11.7495 11.9003C12.07 12.2218 12.2499 12.6572 12.2499 13.1111H1.95996C1.95995 12.6582 2.13906 12.2238 2.45821 11.9025C2.77736 11.5812 3.21064 11.3992 3.66349 11.3961H10.5387Z" fill="black"/>
</svg>
