<svg width="21" height="20" viewBox="0 0 21 20" fill="none" xmlns="http://www.w3.org/2000/svg">
<path d="M20.4342 16.9085H18.3732V8.62252C18.3732 8.45428 18.247 8.32809 18.0788 8.32809H15.5762C15.4079 8.32809 15.2818 8.45428 15.2818 8.62252V16.9085H12.2744V8.62252C12.2744 8.45428 12.1483 8.32809 11.98 8.32809H9.47743C9.30919 8.32809 9.18301 8.45428 9.18301 8.62252V16.9085H6.19672V8.62252C6.19672 8.45428 6.07054 8.32809 5.90229 8.32809H3.3997C3.23146 8.32809 3.10528 8.45428 3.10528 8.62252V16.9085H1.04432C0.876074 16.9085 0.749893 17.0347 0.749893 17.203V19.7056C0.749893 19.8738 0.876074 20 1.04432 20H20.4342C20.6024 20 20.7286 19.8738 20.7286 19.7056V17.203C20.7286 17.0347 20.6024 16.9085 20.4342 16.9085Z" fill="#94A3B8"/>
<path d="M20.5397 4.01684L10.992 0.651963C10.8448 0.588872 10.6765 0.588872 10.5083 0.651963L0.960558 4.01684C0.834377 4.0589 0.771286 4.16406 0.771286 4.29024V6.87699C0.771286 7.04524 0.897467 7.17142 1.06571 7.17142H20.4556C20.6238 7.17142 20.75 7.04524 20.75 6.87699V4.29024C20.729 4.16406 20.6448 4.0589 20.5397 4.01684Z" fill="#94A3B8"/>
</svg>
