<svg width="57" height="57" viewBox="0 0 57 57" fill="none" xmlns="http://www.w3.org/2000/svg">
<rect x="3.16638" y="4.74997" width="52.25" height="49.875" rx="24.9375" fill="black"/>
<path d="M28.5 0C12.78 0 0 12.78 0 28.5C0 44.22 12.78 57 28.5 57C44.22 57 57 44.22 57 28.5C57 12.78 44.22 0 28.5 0ZM28.5 12.48C32.4 12.48 35.58 15.66 35.58 19.56C35.58 23.46 32.4 26.64 28.5 26.64C24.6 26.64 21.42 23.46 21.42 19.56C21.42 15.66 24.6 12.48 28.5 12.48ZM40.14 41.46C40.14 42.12 39.6 42.72 38.88 42.72H18.12C17.46 42.72 16.86 42.18 16.86 41.46V37.32C16.86 32.7 20.58 28.98 25.2 28.98H31.8C36.42 28.98 40.14 32.7 40.14 37.32V41.46Z" fill="#F1F5F9"/>
</svg>
