<svg width="16" height="18" viewBox="0 0 16 18" fill="none" xmlns="http://www.w3.org/2000/svg">
<path fill-rule="evenodd" clip-rule="evenodd" d="M9.52314 1.45794C11.6104 2.13084 13.1336 4.09346 13.1336 6.33645C13.1336 8.97196 13.6977 10.8785 15.5029 12.785C16.4619 13.7944 15.9542 15.1963 14.6567 15.1963H1.3433C0.0458078 15.1963 -0.461907 13.7944 0.497109 12.785C2.30232 10.8785 2.86644 8.97196 2.86644 6.33645C2.86644 4.09346 4.38959 2.13084 6.47686 1.45794C6.47686 0.672897 7.15381 0 8 0C8.84619 0 9.52314 0.672897 9.52314 1.45794Z" fill="#0F172A"/>
<path fill-rule="evenodd" clip-rule="evenodd" d="M10.9335 15.757C10.595 17.0467 9.41031 18 7.99999 18C6.58967 18 5.405 17.0467 5.06653 15.757H10.9335Z" fill="#0F172A"/>
</svg>
