<svg width="57" height="55" viewBox="0 0 57 55" fill="none" xmlns="http://www.w3.org/2000/svg">
<rect width="56.4532" height="54.6" rx="12" fill="#F1F5F9"/>
<path d="M21.0757 10C19.3841 10 18 11.384 18 13.0756V41.5244C18 43.216 19.3841 44.6 21.0757 44.6H35.3775C37.0691 44.6 38.4532 43.216 38.4532 41.5244V13.0756C38.4532 11.384 37.0691 10 35.3775 10H21.0757ZM26.5125 12.9621H29.9418C30.1673 12.9621 30.35 13.2205 30.35 13.5389C30.35 13.8574 30.1673 14.1158 29.9418 14.1158H26.5125C26.287 14.1158 26.1043 13.8574 26.1043 13.5389C26.1043 13.2205 26.287 12.9621 26.5125 12.9621ZM19.6895 17.0741H36.7642V37.5265H19.6895V17.0741ZM28.2269 39.1591C29.2784 39.1591 30.131 40.0117 30.131 41.0632C30.131 42.1147 29.2784 42.9673 28.2269 42.9673C27.1753 42.9673 26.3227 42.1147 26.3227 41.0632C26.3227 40.0117 27.1753 39.1591 28.2269 39.1591Z" fill="black"/>
</svg>
