<svg width="28" height="29" viewBox="0 0 28 29" fill="none" xmlns="http://www.w3.org/2000/svg">
<rect y="0.0255737" width="28" height="28" rx="14" fill="black"/>
<path d="M6.771 14.3561C6.771 14.0542 6.87923 13.795 7.0957 13.5785C7.31217 13.3621 7.57137 13.2538 7.87329 13.2538H12.9062V8.22943C12.9062 7.92751 13.0116 7.66831 13.2224 7.45184C13.4332 7.23537 13.6924 7.12713 14 7.12713C14.3019 7.12713 14.5611 7.23537 14.7776 7.45184C14.9941 7.66831 15.1023 7.92751 15.1023 8.22943V13.2538H20.1353C20.4315 13.2538 20.6878 13.3621 20.9043 13.5785C21.1208 13.795 21.229 14.0542 21.229 14.3561C21.229 14.6638 21.1208 14.9258 20.9043 15.1423C20.6878 15.353 20.4315 15.4584 20.1353 15.4584H15.1023V20.4914C15.1023 20.7876 14.9941 21.044 14.7776 21.2604C14.5611 21.4769 14.3019 21.5851 14 21.5851C13.6924 21.5851 13.4332 21.4769 13.2224 21.2604C13.0116 21.044 12.9062 20.7876 12.9062 20.4914V15.4584H7.87329C7.57137 15.4584 7.31217 15.353 7.0957 15.1423C6.87923 14.9258 6.771 14.6638 6.771 14.3561Z" fill="white"/>
</svg>
